HIERARCHY
ROOT Hips
{
  OFFSET 267.745 86.9975 -272.335
  CHANNELS 6 Xposition Yposition Zposition Zrotation Xrotation Yrotation
  JOINT LeftUpLeg
  {
    OFFSET 8.64259 1.95398 -2.38835
    CHANNELS 3 Zrotation Xrotation Yrotation
    JOINT LeftLeg
    {
      OFFSET 43.7702 0 0
      CHANNELS 3 Zrotation Xrotation Yrotation
      JOINT LeftFoot
      {
        OFFSET 40.6238 0 0
        CHANNELS 3 Zrotation Xrotation Yrotation
        JOINT LeftToeBase
        {
          OFFSET 12.7242 0 0
          CHANNELS 3 Zrotation Xrotation Yrotation
          End Site
          {
            OFFSET 0 0 0
          }
        }
      }
    }
  }
  JOINT RightUpLeg
  {
    OFFSET -8.2249 1.95398 -2.59336
    CHANNELS 3 Zrotation Xrotation Yrotation
    JOINT RightLeg
    {
      OFFSET 43.5653 0 0
      CHANNELS 3 Zrotation Xrotation Yrotation
      JOINT RightFoot
      {
        OFFSET 40.6238 0 0
        CHANNELS 3 Zrotation Xrotation Yrotation
        JOINT RightToeBase
        {
          OFFSET 12.7242 0 0
          CHANNELS 3 Zrotation Xrotation Yrotation
          End Site
          {
            OFFSET 0 0 0
          }
        }
      }
    }
  }
  JOINT Spine
  {
    OFFSET 0.165834 0.87714 6.61349
    CHANNELS 3 Zrotation Xrotation Yrotation
    JOINT Spine1
    {
      OFFSET 7.38963 1.71661e-005 0
      CHANNELS 3 Zrotation Xrotation Yrotation
      JOINT Spine2
      {
        OFFSET 11.9445 1.14441e-005 0
        CHANNELS 3 Zrotation Xrotation Yrotation
        JOINT Spine3
        {
          OFFSET 14.7254 4.19617e-005 0
          CHANNELS 3 Zrotation Xrotation Yrotation
          JOINT Spine4
          {
            OFFSET 10.9679 0 0
            CHANNELS 3 Zrotation Xrotation Yrotation
            JOINT RightShoulder
            {
              OFFSET 2.46616 -1.6653 3.69651
              CHANNELS 3 Zrotation Xrotation Yrotation
              JOINT RightArm
              {
                OFFSET 13.0012 0 0
                CHANNELS 3 Zrotation Xrotation Yrotation
                JOINT RightForeArm
                {
                  OFFSET 28.7848 1.52588e-005 0
                  CHANNELS 3 Zrotation Xrotation Yrotation
                  JOINT RightHand
                  {
                    OFFSET 26.5688 1.52588e-005 0
                    CHANNELS 3 Zrotation Xrotation Yrotation
                    End Site
                    {
                      OFFSET 0 0 0
                    }
                  }
                }
              }
            }
            JOINT LeftShoulder
            {
              OFFSET 2.38034 -1.29275 -3.7523
              CHANNELS 3 Zrotation Xrotation Yrotation
              JOINT LeftArm
              {
                OFFSET 16.3182 6.10352e-005 0
                CHANNELS 3 Zrotation Xrotation Yrotation
                JOINT LeftForeArm
                {
                  OFFSET 27.0901 0 0
                  CHANNELS 3 Zrotation Xrotation Yrotation
                  JOINT LeftHand
                  {
                    OFFSET 24.5451 1.52588e-005 0
                    CHANNELS 3 Zrotation Xrotation Yrotation
                    End Site
                    {
                      OFFSET 0 0 0
                    }
                  }
                }
              }
            }
            JOINT Neck
            {
              OFFSET 5.0226 -0.0266342 0
              CHANNELS 3 Zrotation Xrotation Yrotation
              JOINT Head
              {
                OFFSET 6.69364 2.86102e-005 0
                CHANNELS 3 Zrotation Xrotation Yrotation
                End Site
                {
                  OFFSET 0 0 0
                }
              }
            }
          }
        }
      }
    }
  }
}
MOTION
Frames:	7
Frame Time:	0.0416667
-130.267 83.9418 -33.8258 107.754 70.237 82.004 177.438 24.6924 102.603 -64.8146 25.7327 7.73743 68.9697 17.9581 26.9694 64.8334 -1.07769 14.7902 175.951 35.1952 79.2805 -82.1627 -13.8972 -2.64603 53.4938 4.61804 1.55815 47.8809 -5.10686 -4.43223 -0.833361 9.74849 -89.0986 7.38457 -1.27419 1.84261 -4.28709 -1.19187 1.89688 -26.821 -1.76902 1.37456 -6.80837 -1.76901 1.37456 101.157 -49.5263 -83.7479 19.4542 8.94875 -19.8626 9.36216 4.47 -60.6777 -8.44292 0.252321 -9.29749 -90.9011 -47.6957 76.5933 -29.2698 24.1126 -48.3488 3.74322 13.2147 -38.8079 2.25308 -0.380003 -11.5076 -4.75174 -23.7154 -8.07108 -14.8042 -19.5794 -35.9815 
-119.734 84.324 -23.267 106.438 54.7177 78.6524 -170.702 21.5583 110.238 -54.4632 23.6911 4.76332 63.6835 6.44457 11.5484 68.0856 -1.68535 11.8271 -178.063 30.975 67.4574 -80.8863 -4.353 -6.27942 54.7914 2.40632 0.973211 50.8564 -6.09249 -5.47255 -0.778886 8.8575 -88.6561 9.1627 -0.951954 2.72971 -2.51084 -0.830927 2.76892 -25.0311 -1.7281 2.31778 -5.01848 -1.72814 2.31776 100.79 -50.1239 -84.3105 30.4339 -15.2004 -5.04178 -16.6183 4.08742 -78.362 -7.70316 0.0848889 -6.90556 -89.3179 -51.8909 79.8681 -16.0273 34.6378 -58.6685 16.1011 5.8706 -66.3442 1.50003 -0.278612 -9.92925 -0.59436 -23.8734 -2.23085 -19.2304 -18.5656 -37.7699 
-106.668 87.3101 -12.9591 99.4963 37.1976 83.8196 -167.793 5.07942 114.773 -29.9538 12.6902 9.06427 47.4719 -8.40009 -7.00938 63.3625 -0.626834 16.2909 175.533 32.7144 66.7995 -68.6875 3.29499 -4.5865 53.1459 4.09572 3.69694 50.6272 -6.03066 -5.34405 -1.09011 7.76548 -89.6164 11.3743 -1.9902 0.961758 -0.295206 -1.94595 1.04843 -22.8443 -2.18713 0.318921 -2.83165 -2.18717 0.31891 96.5698 -49.7236 -90.9239 36.9378 -27.8273 11.4655 -22.9404 -0.31153 -62.5055 -4.38776 0.0993646 -9.00107 -85.1573 -52.8994 86.1292 -8.74895 26.6146 -52.2147 23.3226 -4.22885 -83.1498 1.17232 -0.251162 -9.53989 5.68736 -18.5881 8.02555 -20.2479 -15.5586 -31.6883 
-93.4485 88.3659 -1.22578 95.9738 15.4732 78.2958 -168.972 -1.84444 107.404 -40.4746 13.7751 7.74916 43.9937 -10.3159 0.00698194 58.2294 -2.35229 7.10874 170.944 32.94 71.4337 -63.606 -4.27854 -1.1715 50.7764 8.26574 11.4208 60.3352 -8.11021 -2.17259 -0.490742 7.98464 -90.6308 10.8866 -1.26794 -1.12817 -0.784288 -1.31637 -1.07128 -23.3174 -0.87031 -1.45704 -3.30476 -0.870346 -1.45706 95.452 -49.507 -92.6971 26.5438 -18.9695 4.92831 -8.17674 -2.18337 -49.9661 -10.4476 0.0655617 -6.27569 -82.8711 -55.1437 89.6769 -9.08592 5.65495 -29.0081 19.0115 0.310498 -69.5636 3.59646 -0.302952 -8.46977 18.0869 -11.7615 13.354 -21.4984 -12.2792 -20.0243 
-82.6876 87.4236 11.2846 91.1997 -7.79089 87.5771 -162.604 11.907 97.6515 -74.2476 10.6966 0.299632 50.3297 -1.80053 11.5021 59.8277 -1.73718 11.2166 170.807 32.2769 79.5463 -66.4147 -10.6877 0.360542 61.9634 1.22394 3.5196 69.453 -8.23729 6.78591 0.419342 9.01059 -90.7767 8.85339 0.491148 -1.57176 -2.81847 0.42153 -1.59185 -25.3481 0.940818 -1.35153 -5.33544 0.940798 -1.35153 95.9858 -50.2112 -91.7742 18.6305 -16.8252 -17.5915 -6.44755 -5.02773 -44.1658 -12.6088 0.041796 -5.73661 -82.9549 -55.1725 89.5565 -4.24532 -0.302881 -8.38351 9.67197 17.0851 -34.4424 10.4464 -0.546858 -8.38232 26.8141 -5.37683 12.8059 -19.2674 -8.47452 -11.1193 
-69.9142 87.4381 24.8863 82.8713 -24.4232 84.2576 -161.806 38.3598 86.5301 -95.3916 10.8136 1.3577 53.7609 2.05013 15.4824 61.0632 -2.96814 3.84496 170.694 22.9532 88.882 -58.9077 -15.0757 3.05848 70.368 -1.41989 8.48234 57.9664 -4.97377 12.804 1.46381 9.28912 -90.9971 8.31523 2.48237 -2.12031 -3.35525 2.38666 -2.2275 -25.9034 3.00474 -1.27596 -5.8907 3.00473 -1.27597 95.5531 -47.8002 -92.7598 14.0892 -20.3835 -32.1267 -10.7938 -2.27025 -55.1534 -8.46361 0.0214011 -5.80321 -82.8706 -55.3678 89.6933 -9.33734 1.76519 6.97653 -1.00591 38.682 -9.68377 13.6823 -0.214909 -5.25184 28.924 -3.14503 8.78405 -19.4461 -5.82435 -4.80914 
-55.4819 89.3467 41.3796 75.3984 -32.5335 78.5147 -161.454 57.0989 75.1325 -86.7521 13.0606 0.123384 55.678 1.42697 12.221 57.2807 -3.20228 -0.177235 173.052 3.32592 88.9368 -31.4042 -13.5824 1.94689 61.586 8.37176 30.1535 34.7889 -1.89239 10.2355 1.98745 9.17733 -89.9134 8.51371 4.00407 -0.0750802 -3.1511 3.99689 -0.251537 -25.7326 3.84118 1.13361 -5.71994 3.84117 1.1336 98.2526 -45.3607 -88.6467 14.4506 -20.4536 -32.711 -11.657 3.73734 -71.1283 -8.74057 0.166997 -7.8318 -85.1668 -50.2101 85.7808 -19.2539 -1.18809 22.7059 -2.0962 38.9481 -7.27559 14.4866 -0.149954 -4.79893 28.4235 -6.24822 0.326355 -19.8859 -5.7045 -2.84368 
